<svg xmlns="http://www.w3.org/2000/svg" viewBox="0 0 520 180" role="img" aria-labelledby="title desc">
  <title id="title">MAiNS International logo</title>
  <desc id="desc">Stylised MAiNS wordmark with blue circular arc and tagline.</desc>
  <rect width="520" height="180" fill="none"/>
  <path d="M128 24 C72 28 34 74 35 119 C36 158 72 178 118 170" fill="none" stroke="#000" stroke-width="8" stroke-linecap="round"/>
  <path d="M142 28 C85 32 50 78 52 119 C54 153 84 169 124 163" fill="none" stroke="#029ee8" stroke-width="16" stroke-linecap="round"/>
  <path d="M92 44c18 0 31 12 31 28 0 17-14 30-32 30-17 0-31-13-31-30 0-16 14-28 32-28z" fill="#52b8e9"/>
  <text x="132" y="98" font-family="Oswald, Arial Narrow, Arial, sans-serif" font-size="72" font-weight="700" fill="#000">MAiNS</text>
  <text x="142" y="134" font-family="Open Sans, Arial, sans-serif" font-size="21" letter-spacing="2.5" fill="#000">UNCOVER, DEVELOP, CREATE VALUE</text>
</svg>
